<?xml version="1.0" standalone="no"?>
<!DOCTYPE svg PUBLIC "-//W3C//DTD SVG 20010904//EN"
 "http://www.w3.org/TR/2001/REC-SVG-20010904/DTD/svg10.dtd">
<svg version="1.0" xmlns="http://www.w3.org/2000/svg"
 width="500.000000pt" height="500.000000pt" viewBox="0 0 500.000000 500.000000"
 preserveAspectRatio="xMidYMid meet">
<metadata>
Created by potrace 1.14, written by Peter Selinger 2001-2017
</metadata>
<g transform="translate(0.000000,500.000000) scale(0.100000,-0.100000)"
fill="#000000" stroke="none">
<path d="M260 2500 l0 -2240 2240 0 2240 0 0 2240 0 2240 -2240 0 -2240 0 0
-2240z m2753 2045 c37 -8 95 -29 130 -47 79 -42 183 -145 224 -224 56 -106 64
-161 61 -459 l-3 -266 -310 -164 c-170 -90 -313 -164 -317 -165 -5 0 -8 162
-8 360 l0 360 -250 0 -250 0 0 -1415 0 -1415 250 0 250 0 0 506 0 506 -125
-66 c-69 -36 -128 -66 -130 -66 -3 0 -5 161 -5 358 l0 358 288 149 c158 81
360 186 450 232 l162 85 0 -1341 0 -1341 -607 0 c-335 0 -648 5 -697 10 -127
13 -216 57 -310 153 -81 82 -129 169 -151 274 -12 57 -15 305 -15 1592 0 1059
3 1544 11 1590 35 210 215 402 414 439 28 6 235 10 460 11 321 0 425 -2 478
-14z"/>
</g>
</svg>
